<svg height="640" viewBox="0 0 480 480" width="640" xmlns="http://www.w3.org/2000/svg"><path d="M399.832 54.398c-.062-.277-.23-.496-.312-.757a7.369 7.369 0 0 0-.536-1.297 7.668 7.668 0 0 0-.894-1.336 8.164 8.164 0 0 0-.914-.961 7.263 7.263 0 0 0-1.313-.879 8 8 0 0 0-1.246-.61 7.986 7.986 0 0 0-1.601-.328A8.133 8.133 0 0 0 392 48h-40.336C349.602 20.152 336.68 0 320 0s-29.602 20.152-31.664 48h-16.672C269.602 20.152 256.68 0 240 0s-29.602 20.152-31.664 48h-16.672C189.602 20.152 176.68 0 160 0s-29.602 20.152-31.664 48h-16.672C109.602 20.152 96.68 0 80 0S50.398 20.152 48.336 48H8a8 8 0 0 0-8 8v416a8 8 0 0 0 8 8h384a8 8 0 0 0 8-8v-24h72a8 8 0 0 0 7.832-9.602zM320 16c5.777 0 13.84 12.258 15.617 32h-31.203c1.746-19.742 9.809-32 15.586-32zm-80 0c5.777 0 13.84 12.258 15.617 32h-31.203c1.746-19.742 9.809-32 15.586-32zm-80 0c5.777 0 13.84 12.258 15.617 32h-31.203c1.746-19.742 9.809-32 15.586-32zm-80 0c5.777 0 13.84 12.258 15.617 32H64.414C66.16 28.258 74.223 16 80 16zM16 64h32.336C50.398 91.848 63.32 112 80 112a8 8 0 0 0 0-16c-5.777 0-13.84-12.258-15.617-32h63.953c2.09 27.848 14.984 48 31.664 48a8 8 0 0 0 0-16c-5.777 0-13.84-12.258-15.617-32h63.953c2.09 27.848 14.984 48 31.664 48a8 8 0 0 0 0-16c-5.777 0-13.84-12.258-15.617-32h63.953c2.09 27.848 14.984 48 31.664 48a8 8 0 0 0 0-16c-5.777 0-13.84-12.258-15.617-32H384v80H16zm368 400H16V160h368zm16-32V133.602L462.168 432zm0 0"/><path d="M176 288h-32a8 8 0 0 0-8 8v32a8 8 0 0 0 8 8h32a8 8 0 0 0 8-8v-32a8 8 0 0 0-8-8zm-8 32h-16v-16h16zm0 0M256 288h-32a8 8 0 0 0-8 8v32a8 8 0 0 0 8 8h32a8 8 0 0 0 8-8v-32a8 8 0 0 0-8-8zm-8 32h-16v-16h16zm0 0M96 288H64a8 8 0 0 0-8 8v32a8 8 0 0 0 8 8h32a8 8 0 0 0 8-8v-32a8 8 0 0 0-8-8zm-8 32H72v-16h16zm0 0M176 368h-32a8 8 0 0 0-8 8v32a8 8 0 0 0 8 8h32a8 8 0 0 0 8-8v-32a8 8 0 0 0-8-8zm-8 32h-16v-16h16zm0 0M256 368h-32a8 8 0 0 0-8 8v32a8 8 0 0 0 8 8h32a8 8 0 0 0 8-8v-32a8 8 0 0 0-8-8zm-8 32h-16v-16h16zm0 0M96 368H64a8 8 0 0 0-8 8v32a8 8 0 0 0 8 8h32a8 8 0 0 0 8-8v-32a8 8 0 0 0-8-8zm-8 32H72v-16h16zm0 0M176 208h-32a8 8 0 0 0-8 8v32a8 8 0 0 0 8 8h32a8 8 0 0 0 8-8v-32a8 8 0 0 0-8-8zm-8 32h-16v-16h16zm0 0M256 208h-32a8 8 0 0 0-8 8v32a8 8 0 0 0 8 8h32a8 8 0 0 0 8-8v-32a8 8 0 0 0-8-8zm-8 32h-16v-16h16zm0 0M336 288h-32a8 8 0 0 0-8 8v32a8 8 0 0 0 8 8h32a8 8 0 0 0 8-8v-32a8 8 0 0 0-8-8zm-8 32h-16v-16h16zm0 0M336 368h-32a8 8 0 0 0-8 8v32a8 8 0 0 0 8 8h32a8 8 0 0 0 8-8v-32a8 8 0 0 0-8-8zm-8 32h-16v-16h16zm0 0M336 208h-32a8 8 0 0 0-8 8v32a8 8 0 0 0 8 8h32a8 8 0 0 0 8-8v-32a8 8 0 0 0-8-8zm-8 32h-16v-16h16zm0 0M96 208H64a8 8 0 0 0-8 8v32a8 8 0 0 0 8 8h32a8 8 0 0 0 8-8v-32a8 8 0 0 0-8-8zm-8 32H72v-16h16zm0 0"/></svg>