<svg xmlns="http://www.w3.org/2000/svg" viewBox="0 0 32.885 32.885"><path d="M6.875 32.885H1.414a.5.5 0 0 1-.5-.5V14.784a.5.5 0 0 1 .5-.5h5.461a.5.5 0 0 1 .5.5v17.601a.5.5 0 0 1-.5.5zm-4.961-1h4.461V15.284H1.914v16.601zM19.176 32.885h-5.465a.5.5 0 0 1-.5-.5V6.85a.5.5 0 0 1 .5-.5h5.465a.5.5 0 0 1 .5.5v25.535a.5.5 0 0 1-.5.5zm-4.965-1h4.465V7.35h-4.465v24.535zM31.471 32.885h-5.465a.5.5 0 0 1-.5-.5V.5a.5.5 0 0 1 .5-.5h5.465a.5.5 0 0 1 .5.5v31.885a.5.5 0 0 1-.5.5zm-4.965-1h4.465V1h-4.465v30.885z"/></svg>