<svg id="flat" height="300" viewBox="0 0 512 512" width="300" xmlns="http://www.w3.org/2000/svg"><path d="m440 288v168a32 32 0 0 1 -32 32h-304a32 32 0 0 1 -32-32v-168z" fill="#548aff"/><path d="m440 157.25v66.75h-368v-168a32.004 32.004 0 0 1 32-32h202.75a32.06422 32.06422 0 0 1 22.62 9.37l101.26 101.26a32.06422 32.06422 0 0 1 9.37 22.62z" fill="#548aff"/><circle cx="256" cy="256" fill="#f6bb00" r="96"/><path d="m437.12 144h-85.12a32.004 32.004 0 0 1 -32-32v-85.12a31.82536 31.82536 0 0 1 9.37 6.49l101.26 101.26a31.82536 31.82536 0 0 1 6.49 9.37z" fill="#7dafff"/><g fill="#3b57c4"><path d="m216 64h64v16h-64z"/><path d="m168 64h24v16h-24z"/><path d="m192 112h88v16h-88z"/><path d="m120 112h48v16h-48z"/><path d="m304 384h88v16h-88z"/><path d="m200 384h80v16h-80z"/><path d="m120 384h56v16h-56z"/><path d="m368 432h24v16h-24z"/><path d="m280 432h64v16h-64z"/><path d="m120 432h136v16h-136z"/></g><rect fill="#de9400" height="32" rx="16" transform="matrix(-1 0 0 -1 512 592)" width="32" x="240" y="280"/><path d="m240 200h32l-8 56h-16z" fill="#de9400"/></svg>